<svg xmlns="http://www.w3.org/2000/svg" viewBox="0 0 100 100">
<polygon points="50.00,3.50 90.27,26.75 90.27,73.25 50.00,96.50 9.73,73.25 9.73,26.75" fill="none" stroke="#FFFFFF" stroke-width="2.4" stroke-linejoin="round"></polygon><polygon points="50.00,9.50 85.07,29.75 85.07,70.25 50.00,90.50 14.93,70.25 14.93,29.75" fill="none" stroke="#FFFFFF" stroke-width="1" opacity="0.7" stroke-linejoin="round"></polygon><g transform="translate(50,50) scale(0.62) translate(-50,-50)"><g fill="none" stroke="#FFFFFF" stroke-width="2.1" stroke-linejoin="round" stroke-linecap="round"><circle cx="50" cy="7" r="1.5" fill="#FFFFFF" stroke="none"></circle><line x1="50" y1="9" x2="50" y2="12.5"></line><path d="M43,20 Q50,10 57,20"></path><line x1="42.5" y1="20" x2="57.5" y2="20"></line><rect x="43" y="23.5" width="14" height="18.5" rx="1.2"></rect><circle cx="50" cy="32.7" r="4.6" stroke="#FFFFFF"></circle><line x1="50" y1="32.7" x2="50" y2="29" stroke="#FFFFFF"></line><line x1="50" y1="32.7" x2="52.6" y2="33.9" stroke="#FFFFFF"></line><polygon points="44,42 56,42 60,79 40,79"></polygon><line x1="42.6" y1="55" x2="57.4" y2="55"></line><line x1="41.4" y1="67" x2="58.6" y2="67"></line><rect x="36" y="79" width="28" height="5"></rect><rect x="31.5" y="84" width="37" height="6" rx="1.2"></rect></g></g>
</svg>